<svg xmlns="http://www.w3.org/2000/svg" xmlns:xlink="http://www.w3.org/1999/xlink" width="1920" height="1080" viewBox="0 0 1920 1080">
  <defs>
    <clipPath id="clip-Web_1920_1">
      <rect width="1920" height="1080"/>
    </clipPath>
  </defs>
  <g id="Web_1920_1" data-name="Web 1920 – 1" clip-path="url(#clip-Web_1920_1)">
    <path id="Subtraction_4" data-name="Subtraction 4" d="M107.849,1040a68.837,68.837,0,0,1-68.857-68.908A68.889,68.889,0,0,1,73.08,911.6L152.9,846.369l2.682-.289L328.607,709.859l-.006-.01a63.529,63.529,0,0,0-68.254-106.532l-.033-.052L115.754,715.2a68.739,68.739,0,0,1-85.4,6.684A69.086,69.086,0,0,1,5.412,691.562a68.925,68.925,0,0,1,3.985-61.6,69.3,69.3,0,0,1,24.7-24.719L113.9,540.018l.131-.013.13-.271L411.106,306.5H983.5V709.8L772.8,872.943a68.738,68.738,0,0,1-85.391,6.68A69.1,69.1,0,0,1,662.46,849.3a68.925,68.925,0,0,1,3.986-61.6,69.284,69.284,0,0,1,24.7-24.719l79.813-65.23,1.42-.153v-1.315a63.531,63.531,0,1,0-75.323-100.832l-.135-.037L417.493,817.85l.378-.041L154.743,1021.55A68.6,68.6,0,0,1,107.849,1040Z" transform="translate(937 -307)" fill="#242d3d"/>
    <g id="Group_7" data-name="Group 7" transform="translate(-1076 49)">
      <path id="Path_2" data-name="Path 2" d="M73,0A73,73,0,1,1,0,73,73,73,0,0,1,73,0Z" transform="translate(1527 538)" fill="#242d3d"/>
    </g>
    <g id="Group_8" data-name="Group 8" transform="translate(438.888 306.295) rotate(-21)">
      <rect id="Rectangle_1" data-name="Rectangle 1" width="9.843" height="25.428" rx="4" transform="translate(7.792 0)" fill="#333e52"/>
      <rect id="Rectangle_2" data-name="Rectangle 2" width="9.843" height="25.428" rx="4" transform="translate(25.428 7.792) rotate(90)" fill="#333e52"/>
    </g>
    <g id="Group_9" data-name="Group 9" transform="translate(492.249 103.071) rotate(-17)">
      <rect id="Rectangle_1-2" data-name="Rectangle 1" width="9.843" height="25.428" rx="4" transform="translate(7.792 0)" fill="#333e52"/>
      <rect id="Rectangle_2-2" data-name="Rectangle 2" width="9.843" height="25.428" rx="4" transform="translate(25.428 7.792) rotate(90)" fill="#333e52"/>
    </g>
    <ellipse id="Ellipse_1" data-name="Ellipse 1" cx="6" cy="5.5" rx="6" ry="5.5" transform="translate(247 209)" fill="#333e52"/>
  </g>
</svg>
