<?xml version="1.0" encoding="utf-8"?>
<!-- Generator: Adobe Illustrator 22.0.0, SVG Export Plug-In . SVG Version: 6.00 Build 0)  -->
<svg version="1.1" id="Layer_1" xmlns="http://www.w3.org/2000/svg" xmlns:xlink="http://www.w3.org/1999/xlink" x="0px" y="0px"
	 viewBox="0 0 628 476.5" style="enable-background:new 0 0 628 476.5;" xml:space="preserve">
<style type="text/css">
	.st0{fill:#925B97;}
	.st1{fill:#EBE0EB;}
	.st2{fill:#1C1C1C;}
	.st3{fill:#1E1E1E;}
</style>
<g>
	<path class="st0" d="M614-4c5.5,2.9,7.1,7.4,7.1,13.6c-0.1,122-0.1,243.9-0.1,365.9c0,10.5-3.1,13.6-13.7,13.6c-2,0-4,0.1-6-0.1
		c-5-0.4-8.6-4.1-9.2-9c-0.2-1.5-0.1-3-0.1-4.5c0-122,0-243.9-0.1-365.9c0-6.1,1.6-10.7,7.1-13.6C604-4,609-4,614-4z"/>
	<path class="st1" d="M1.9,306l-0.4,0L1,306c0-39.7,0-79.3,0-119c0.3-0.1,0.6-0.1,0.9,0c2,1.8,1.7,4.2,1.7,6.5
		c0.1,35.4,0.1,70.7,0,106.1C3.6,301.8,3.9,304.2,1.9,306z"/>
	<path class="st2" d="M170,399.5c-0.6,7.4,1.2,16.5-1.1,25.3c-3.6,14-18.7,22.3-32.4,18.3c-2.3-0.7-3.5-1.6-3.2-4.1
		c0.1-1.5,0-3,0-4.5c0-2.3-0.7-5.2,0.4-6.8c1.5-2.3,4.1,0.5,6.3,0.3c4.3-0.3,7.7-2,9.9-5.8c0.4-0.6,1.1-1.4,0.4-2.2
		c-0.7-0.8-1.5-0.4-2.3-0.1c-11.4,4.5-21.5-4.4-21.3-16.7c0.1-9,0.1-18,0-27c-0.1-2.7,0.9-3.5,3.4-3.3c4.8,0.4,10.9-1.9,14,0.8
		c2.9,2.6,0.7,8.8,0.9,13.4c0.1,3.7,0.1,7.3,0,11c-0.1,2.5,0.6,4.6,3.3,4.7c3,0.1,3.8-2.2,3.8-4.8c0-7.2,0.1-14.3,0-21.5
		c-0.1-2.7,0.5-4,3.5-3.7c4.7,0.5,10.9-2,13.9,1c2.3,2.3,0.6,8.5,0.7,13C170,390.6,170,394.3,170,399.5z"/>
	<path class="st2" d="M57.4,392.8c-3.7,0.3-7.1,0.1-10.5-2c-3.5-2.1-6.9-0.8-9,2.7c-2.1,3.4-1.1,6.6,1.9,8.8
		c3.2,2.4,6.8,2.5,9.3-0.9c1.7-2.4,3.7-2.9,6.3-2.8c2.3,0.1,4.6-0.3,7-0.3c7.5-0.2,7.6,0,5.2,7.1c-4,11.9-16.6,18.9-29.1,16.2
		c-12.7-2.7-21-14.5-19.6-27.8c1.3-12.3,11.8-21.7,24.4-21.8c11.2-0.1,21,6.5,24.4,16.4c1,2.8,0.9,4.3-2.8,4
		C62.4,392.2,59.9,392.7,57.4,392.8z"/>
	<path class="st2" d="M121.3,383c0,2.2-0.1,4.3,0,6.5c0.1,2.3-0.6,3.2-3.1,3.3c-1.6,0.1-4.6-1.6-4.7,1.6c-0.1,3.1,0.5,7,4.4,7.4
		c4,0.4,4.3,2.4,4.1,5.5c-0.2,3.7-0.3,7.4,0,11c0.3,3.5-1.3,3.8-4.1,3.6c-12.8-0.9-22.3-10.8-22.8-24.7c-0.4-13-0.1-26-0.2-39
		c0-2.3,0.5-3.3,3-3.2c4,0.2,8,0.2,12,0c2.8-0.2,3.4,1.1,3.3,3.5c-0.2,2.5,0.1,5-0.1,7.5c-0.2,4.3-0.7,8.6,6,7.3
		c1.9-0.4,2,1.2,2,2.7C121.3,378.4,121.3,380.7,121.3,383z"/>
	<path class="st2" d="M73.1,396.8c0-6.8,0.1-13.6-0.1-20.4c-0.1-2.6,0.7-3.5,3.3-3.4c4.8,0.3,10.9-1.5,14,0.8
		c3,2.2,0.8,8.7,0.9,13.2c0.2,10.1-0.1,20.3,0.1,30.4c0,2.8-0.7,3.8-3.6,3.6c-3.8-0.2-7.6-0.2-11.5,0c-2.6,0.1-3.4-0.7-3.3-3.4
		C73.2,410.7,73.1,403.7,73.1,396.8z"/>
	<path class="st3" d="M82.4,351.3c4.7,0,8.9,4.3,8.9,8.9c0,5-3.8,8.6-9,8.7c-5.3,0.1-9.4-4-9.3-8.9
		C73.3,355.3,77.6,351.3,82.4,351.3z"/>
	<path class="st0" d="M385,189.8c0-6.1-1.3-12.3-4.4-17.7c-6.7-11.9-17.7-17-30.7-17.1c-38.3-0.3-76.7-0.2-115,0
		c-6.4,0-12.9,1.4-18.6,4.8c-11.8,7.1-16.2,18.2-16.3,31.2c-0.2,40.7-0.1,81.3-0.1,122c0,0,0.1,0,0.1,0c0,20,0,40,0,60
		c0,21.2,0,42.3,0,63.5c0,7.6,3.9,11.4,11.3,11.5c1.7,0,3.3,0,5,0c9.2,0,12.6-3.5,12.6-12.7c0-30.7,0-61.3,0-92c0-1.2,0-2.3,0-3.5
		c-0.1-1.7,0.4-2,2.3-2c39.5,0.2,79,0.6,118.5,0.1c21.8-0.3,34.7-13,35.1-34.6C385.6,265.5,385.2,227.6,385,189.8z M359.2,302.2
		c0,7.7-2.4,10.1-10.2,10.1c-37.6,0-75.3,0-112.9,0c-8.1,0-10.4-2.3-10.4-10.4c0-37,0-73.9,0-110.9c0-8.1,2.3-10.3,10.4-10.3
		c18.8,0,37.6,0,56.5,0c18.8,0,37.6,0,56.5,0c7.8,0,10.1,2.4,10.1,10.1C359.3,228,359.3,265.1,359.2,302.2z"/>
	<path class="st0" d="M579.9,190.3c-0.4-21.9-12.9-34.8-34.5-35.2c-38.6-0.7-77.3-0.8-116,0c-21.4,0.4-33.9,13-34.3,34.4
		c-0.7,38-0.4,76-0.1,114c0.1,12,4.6,22.3,15.4,29.1c6.2,3.9,13,5.2,20,5.4c13.2,0.3,26.3,0.1,39.5,0.1c25.3,0,50.7,0.2,76-0.2
		c4.8-0.1,5.3,1.1,5.2,5.1c-0.2,11.3-0.1,22.7-0.1,34c0.1,6.9,4,10.8,10.8,11c1.8,0,3.7,0,5.5,0c9.2,0,12.6-3.5,12.6-12.7
		c0-30.7,0-61.3,0-92c0,0,0.1,0,0.1,0C580.1,252.3,580.5,221.3,579.9,190.3z M554.2,302.1c0,7.8-2.3,10.2-10,10.2
		c-37.8,0-75.6,0-113.4,0c-7.7,0-10.1-2.4-10.1-10.2c0-37.1,0-74.3,0-111.4c0-7.6,2.4-10,10.3-10c18.8,0,37.6,0,56.5,0
		c18.8,0,37.6,0,56.5,0c8,0,10.3,2.3,10.3,10.5C554.3,228.1,554.3,265.1,554.2,302.1z"/>
	<path class="st0" d="M186.9,189.8c-0.4-21.5-13-34.3-34.5-34.7c-38.6-0.7-77.3-0.5-115.9-0.1c-11.9,0.1-22.2,4.8-29.2,15.4
		c-3.3,5.1-3.4,11.1-5.4,16.5c0,39.7,0,79.4,0,119.1c0.4,1.4,0.9,2.9,1.1,4.3c2.9,18.1,16.8,27.4,33.4,27.6
		c38.6,0.5,77.3,0.7,115.9,0c21.5-0.4,34.2-13.1,34.6-34.7C187.6,265.4,187.6,227.6,186.9,189.8z M151,312.3c-18.8,0-37.6,0-56.5,0
		s-37.6,0-56.5,0c-8,0-10.3-2.3-10.3-10.5c0-37,0-73.9,0-110.9c0-7.8,2.3-10.2,10-10.2c37.8,0,75.6,0,113.4,0c7.7,0,10,2.4,10,10.2
		c0,37,0,73.9,0,110.9C161.2,310,159,312.3,151,312.3z"/>
</g>
</svg>
