<?xml version="1.0" encoding="utf-8"?>
<!-- Generator: Adobe Illustrator 22.0.0, SVG Export Plug-In . SVG Version: 6.00 Build 0)  -->
<svg version="1.1" id="Group_1" xmlns="http://www.w3.org/2000/svg" xmlns:xlink="http://www.w3.org/1999/xlink" x="0px" y="0px"
	 viewBox="0 0 1469 389" style="enable-background:new 0 0 1469 389;" xml:space="preserve">
<style type="text/css">
	.st0{fill:#1ABC9C;}
	.st1{fill:#DCDCDC;}
</style>
<g>
	<path class="st0" d="M3.7,210.9v-46.1c6.2,3,12,4.5,17.6,4.5c5.9,0,10.8-1.4,14.6-4.1c3.8-2.6,5.7-6,5.7-10.2
		c0-4.5-2.6-10.4-7.8-17.9c-3.3-4.7-6.7-10-10.4-15.7c-2.1-3.3-4.1-6.9-6.1-10.9c-5-10.1-7.5-20.1-7.5-29.9c0-11.1,2.7-21.1,8-30
		c5.3-8.8,12.7-15.8,22.4-20.9c9.6-5.1,20.2-7.6,31.8-7.6c3.9,0,7.4,0.2,10.4,0.5c3.2,0.4,6.6,1,10.4,2v46.8
		c-4.6-1.5-8.7-2.3-12.1-2.3c-5.6,0-10.3,1.5-13.9,4.4c-3.6,3-5.5,6.9-5.5,11.6c0,5.5,3.3,13.3,10,23.5c8,12.3,13.3,21.1,15.8,26.3
		c3.6,8.1,5.5,16.8,5.5,26.1c0,10.7-2.5,20.2-7.5,28.5c-5.1,8.5-12.2,14.9-21.3,19.4c-9.4,4.5-19.9,6.8-31.6,6.8
		C23.3,215.7,13.8,214.1,3.7,210.9z"/>
	<path class="st0" d="M249.2,150.9V212h-45.7v-55.1v-6.3c0-8.6-1.1-14.9-3.3-18.8c-2.1-3.8-5-6.7-8.6-8.7c-3.7-2.1-7.8-3.1-12.1-3.1
		c-6.8,0-12.6,2.4-17.5,7.2c-4.8,5-7.2,11-7.2,17.9c0,6.9,2.5,12.7,7.4,17.3c4.8,4.7,10.8,7.1,18,7.1c4.3,0,9.3-1,15-3.1v46.8
		c-5.3,1.2-10.1,1.8-14.6,1.8c-12.8,0-24.7-3.1-35.7-9.3c-11.1-6.2-19.7-14.6-25.9-25.2c-6.3-10.6-9.4-22.4-9.4-35.2
		c0-12.7,3.1-24.6,9.4-35.5c6.2-10.8,14.6-19.4,25.2-25.6c10.5-6.3,22.2-9.4,34.9-9.4c12.8,0,24.6,3,35.3,9.1
		c10.6,6.1,19.1,14.5,25.5,25.2c6.2,10.7,9.3,22.3,9.3,34.8V150.9z"/>
	<path class="st0" d="M320.8,212h-45.6v-61.8v-5.7c0-10.6,0.9-19.5,2.7-26.5c1.8-6.7,5-13.1,9.4-19.2c5.5-7.5,12.8-13.4,21.7-17.7
		c9-4.3,18.1-6.4,27.3-6.4c6.9,0,13.2,1,19,3c5.6,2,11.8,5.3,18.5,9.8c7.4-4.8,13.9-8.2,19.5-10.1c5.6-1.9,12-2.9,19.2-2.9
		c10,0,19.5,2.2,28.5,6.5c8.9,4.3,16.2,10.2,21.8,17.9c3.1,4.4,5.5,8.6,7.1,12.7c1.7,4.4,3.1,9.2,4.1,14.6
		c0.8,5.5,1.2,11.5,1.2,18.3v5.7V212h-45.6v-66.6v-5.7c-0.1-13.5-5.3-20.2-15.7-20.2c-10.7,0-16.1,7.1-16.1,21.3v4.6V212h-45.6
		v-66.6v-4.6c0-7-1.3-12.3-4-16c-2.5-3.5-6.6-5.3-12.1-5.3c-5.3,0-9.2,1.7-11.7,5c-2.5,3.4-3.8,8.8-3.8,16.2v4.6V212z"/>
	<path class="st0" d="M547,263.2h-45.6V158.4v-9c0-7.1,0.5-13.5,1.6-19.2c0.9-5.5,2.5-10.7,4.8-15.7c2-4.5,4.9-9.1,8.6-13.6
		c3.5-4.5,7.2-8.2,11.2-11.3c4.4-3.2,8.8-5.9,13.2-8.2c4.3-2.1,9.1-3.8,14.6-5c5.1-1.1,10.4-1.6,16-1.6c12.6,0,24.4,3.1,35.2,9.3
		c10.7,6.2,19.1,14.6,25.2,25.4c6.1,10.7,9.1,22.5,9.1,35.3c0,9.8-1.7,19-5.2,27.6c-3.6,8.6-8.7,16.1-15.3,22.4
		c-6.7,6.6-14.4,11.6-22.9,15c-8.7,3.5-18.1,5.3-28.2,5.3c-4.5,0-9.2-0.6-14-1.8v-46.8c5.5,2.1,10.4,3.1,14.7,3.1
		c7.6,0,13.9-2.3,18.7-6.8c4.6-4.5,7-10.4,7-17.6c0-5-1-9.4-3-13.1c-2.1-3.7-4.9-6.7-8.5-8.9c-3.7-2.1-7.9-3.1-12.5-3.1
		c-4.5,0-8.7,1.1-12.5,3.3c-3.8,2.3-6.7,5.1-8.6,8.6c-1.5,2.7-2.4,5.4-2.7,8c-0.5,2.8-0.8,6.5-0.8,10.9v6.1V263.2z"/>
	<path class="st0" d="M707.1,212h-45.7V25.8h45.7V212z"/>
	<path class="st0" d="M838.9,158.6l11,44.6c-14,7.7-29.1,11.6-45.1,11.6c-14.7,0-27.9-3-39.4-9.1c-6-3.2-11.3-6.9-15.8-11.1
		s-8.5-9-11.9-14.4c-6.7-10.8-10.1-22.8-10.1-35.9c0-12.7,3.1-24.4,9.4-35.1c6.1-10.5,14.6-19,25.5-25.4c10.8-6.2,22.6-9.3,35.3-9.3
		c12.4,0,23.8,2.9,34.2,8.6c5.2,2.8,9.9,6.3,14.2,10.4c4.3,4.1,8.1,8.9,11.5,14.3L801,169.2c2.1,0.5,4,0.8,5.9,0.8
		C816.7,170,827.3,166.2,838.9,158.6z M776.1,156.1l31.8-34.5c-3.5-1.7-7.1-2.6-10.6-2.6c-4.4,0-8.4,1.1-12.1,3.3
		c-3.8,2.4-6.8,5.4-8.9,9.1c-2.3,3.9-3.4,8-3.4,12.4C772.9,147.7,774,151.8,776.1,156.1z"/>
	<path class="st0" d="M1006.5,169.5h3V212h-9.3h-10.4c-23.2-0.5-39.5-10.2-48.8-29.1c-5.3-10.2-7.9-25.4-7.9-45.7v-6.8V25.8h49.8
		v109.4v6c0,6.7,0.4,11.7,1.1,14.9c0.7,3.1,2.1,5.7,4.1,7.8C991.8,167.6,998,169.5,1006.5,169.5z"/>
	<path class="st0" d="M1017.8,144.8c0-9.6,1.8-18.7,5.5-27.1c3.7-8.6,8.8-16.1,15.1-22.5c6.5-6.5,14-11.5,22.5-15.1
		c8.5-3.5,17.5-5.3,27-5.3c9.8,0,19,1.8,27.4,5.5c8.6,3.6,16,8.6,22.2,14.9c6.4,6.4,11.4,13.8,15,22.2c3.6,8.5,5.5,17.6,5.5,27.6
		c0,9.7-1.8,18.8-5.5,27.1c-3.7,8.5-8.7,16-15,22.2c-6.3,6.3-13.8,11.3-22.5,15s-17.8,5.6-27.1,5.6c-12.8,0-24.6-3.1-35.2-9.4
		c-10.7-6.3-19.2-14.8-25.5-25.5C1021,169.2,1017.8,157.5,1017.8,144.8z M1063.3,144.8c0,4.5,1.1,8.6,3.4,12.3c2.2,3.8,5.2,6.8,9,9
		c3.8,2.2,7.9,3.3,12.3,3.3c4.4,0,8.5-1.1,12.3-3.3c3.7-2.2,6.8-5.2,9.1-9c2.2-3.7,3.3-7.8,3.3-12.3c0-4.5-1.1-8.6-3.3-12.4
		c-2.3-3.7-5.3-6.7-9-9c-3.8-2.2-8-3.3-12.4-3.3c-4.5,0-8.5,1.1-12.3,3.3c-3.8,2.3-6.8,5.3-9,9
		C1064.4,136.1,1063.3,140.2,1063.3,144.8z"/>
	<path class="st0" d="M1203.1,262.9v-40.2c4.2,1.5,8,2.7,11.6,3.4c3.2,0.6,7,1,11.5,1c8.6,0,15.9-1.7,21.7-5
		c5.7-3.2,9.8-7.9,12.1-14.2c1.7-4.6,2.6-12.1,2.6-22.4v-34.5c0-8.5-1-14.8-3.1-18.8c-1.9-3.7-4.5-6.6-7.9-8.6c-3.4-2-7.1-3-11.3-3
		c-6.5,0-12,2.2-16.5,6.7c-4.5,4.5-6.7,9.8-6.7,16.1c0,6.5,2.3,12,7,16.4c4.5,4.5,10.1,6.7,17,6.7c3.9,0,8.2-0.9,12.8-2.6v40.4
		c-7.4,1.9-14.1,2.9-20.3,2.9c-11.8,0-22.5-2.8-31.9-8.3c-9.6-5.5-17.1-13.1-22.4-22.6c-5.5-9.7-8.2-20.5-8.2-32.5
		c0-12.5,3.1-24,9.3-34.5c6.2-10.5,14.5-18.9,25.1-25.1c10.5-6.2,22-9.3,34.2-9.3c7.8,0,15.5,1.3,23.2,4c7.3,2.6,14.1,6.5,20.6,11.7
		c6.1,5,11.1,10.8,15.1,17.5c3.5,5.6,5.9,11.4,7.2,17.3c1.4,6,2,13.9,2,23.6v39.1c0,11.3-0.9,20.4-2.6,27.4
		c-1.7,7.3-4.7,14.1-9,20.5c-4.3,6.6-9.6,12.3-16.1,17c-6,4.5-13.1,7.8-21.3,10c-8,2.2-17.1,3.3-27.3,3.3c-4,0-8.4-0.2-13.1-0.7
		C1214,264.9,1208.9,264.1,1203.1,262.9z"/>
	<path class="st0" d="M1326.4,144.8c0-9.6,1.8-18.7,5.5-27.1c3.7-8.6,8.8-16.1,15.1-22.5c6.5-6.5,14-11.5,22.5-15.1
		c8.5-3.5,17.5-5.3,27-5.3c9.8,0,19,1.8,27.4,5.5c8.6,3.6,16,8.6,22.2,14.9c6.4,6.4,11.4,13.8,15,22.2c3.6,8.5,5.5,17.6,5.5,27.6
		c0,9.7-1.8,18.8-5.5,27.1c-3.7,8.5-8.7,16-15,22.2c-6.3,6.3-13.8,11.3-22.5,15s-17.8,5.6-27.1,5.6c-12.8,0-24.6-3.1-35.2-9.4
		c-10.7-6.3-19.2-14.8-25.5-25.5C1329.5,169.2,1326.4,157.5,1326.4,144.8z M1371.8,144.8c0,4.5,1.1,8.6,3.4,12.3
		c2.2,3.8,5.2,6.8,9,9c3.8,2.2,7.9,3.3,12.3,3.3c4.4,0,8.5-1.1,12.3-3.3c3.7-2.2,6.8-5.2,9.1-9c2.2-3.7,3.3-7.8,3.3-12.3
		c0-4.5-1.1-8.6-3.3-12.4c-2.3-3.7-5.3-6.7-9-9c-3.8-2.2-8-3.3-12.4-3.3c-4.5,0-8.5,1.1-12.3,3.3c-3.8,2.3-6.8,5.3-9,9
		C1372.9,136.1,1371.8,140.2,1371.8,144.8z"/>
</g>
<g>
	<path class="st1" d="M49.9,360.4H28v-60.3H10.8v-21.8h56.4v21.8H49.9V360.4z"/>
	<path class="st1" d="M95.9,360.4H75.7v-82h20.1v25.4c4-2.6,8.8-3.9,14.1-3.9c2.9,0,5.6,0.5,8.1,1.6c2.5,1.1,4.6,2.6,6.3,4.5
		c1.7,2,3.1,4.2,4,6.9c1,2.6,1.4,5.6,1.4,8.8v1.9v36.9h-20.1V330v-1.9c0-2.6-0.6-4.7-1.8-6.1c-1.2-1.4-3-2.2-5.3-2.2
		c-2.2,0-3.8,0.7-5,2.1c-1.2,1.4-1.8,3.4-1.8,5.9v2.4V360.4z"/>
	<path class="st1" d="M141.1,288.4c0-2,0.5-3.9,1.4-5.6c0.9-1.6,2.2-3,3.9-4.1c1.6-1,3.4-1.4,5.3-1.4c2,0,3.9,0.5,5.5,1.5
		c1.7,1,3,2.3,4,4c0.9,1.7,1.4,3.5,1.4,5.5c0,1.9-0.5,3.7-1.4,5.3c-1,1.7-2.4,3-4,3.9c-1.7,1-3.5,1.4-5.3,1.4
		c-1.9,0-3.7-0.5-5.3-1.4c-1.7-1-3-2.2-4-3.8C141.6,292,141.1,290.3,141.1,288.4z M161.9,360.4h-20.1v-59.6h20.1V360.4z"/>
	<path class="st1" d="M170.5,361.6v-20.6c3.5,0,5.9-0.7,7.3-2c1.4-1.4,2.2-3.7,2.5-7.1l0.4-6.4c0.4-4.8,1.3-8.7,2.9-11.9
		c1.5-3.1,3.8-5.9,7.1-8.3c5-3.6,10.6-5.5,16.9-5.5c0.7,0,1.7,0.1,3.1,0.2v20.5c-0.3,0-0.9-0.1-1.8-0.1c-2.8,0-4.8,0.8-6.1,2.3
		c-1.2,1.4-1.9,4-2.1,7.8l-0.4,6.7c-0.2,3.6-1,6.9-2.3,9.8c-1.4,3-3.3,5.6-5.8,7.8c-2.4,2.2-5.3,3.9-8.5,5
		c-3.3,1.2-6.8,1.7-10.4,1.7C172.1,361.7,171.1,361.7,170.5,361.6z"/>
	<path class="st1" d="M244.4,288.4c0-2,0.5-3.9,1.4-5.6c0.9-1.6,2.2-3,3.9-4.1c1.6-1,3.4-1.4,5.3-1.4c2,0,3.9,0.5,5.5,1.5
		c1.7,1,3,2.3,4,4c0.9,1.7,1.4,3.5,1.4,5.5c0,1.9-0.5,3.7-1.4,5.3c-1,1.7-2.4,3-4,3.9c-1.7,1-3.5,1.4-5.3,1.4
		c-1.9,0-3.7-0.5-5.3-1.4c-1.7-1-3-2.2-4-3.8C244.9,292,244.4,290.3,244.4,288.4z M265.3,360.4h-20.1v-59.6h20.1V360.4z"/>
	<path class="st1" d="M273.9,361.6v-20.6c3.5,0,5.9-0.7,7.3-2c1.4-1.4,2.2-3.7,2.5-7.1l0.4-6.4c0.4-4.8,1.3-8.7,2.9-11.9
		c1.5-3.1,3.8-5.9,7.1-8.3c5-3.6,10.6-5.5,16.9-5.5c0.7,0,1.7,0.1,3.1,0.2v20.5c-0.3,0-0.9-0.1-1.8-0.1c-2.8,0-4.8,0.8-6.1,2.3
		c-1.2,1.4-1.9,4-2.1,7.8l-0.4,6.7c-0.2,3.6-1,6.9-2.3,9.8c-1.4,3-3.3,5.6-5.8,7.8c-2.4,2.2-5.3,3.9-8.5,5
		c-3.3,1.2-6.8,1.7-10.4,1.7C275.4,361.7,274.5,361.7,273.9,361.6z"/>
	<path class="st1" d="M406.8,333.5v26.9h-20.1v-24.3v-2.8c0-3.8-0.5-6.6-1.4-8.3c-0.9-1.7-2.2-3-3.8-3.8c-1.6-0.9-3.4-1.4-5.3-1.4
		c-3,0-5.6,1.1-7.7,3.2c-2.1,2.2-3.2,4.8-3.2,7.9c0,3,1.1,5.6,3.2,7.6c2.1,2.1,4.8,3.1,7.9,3.1c1.9,0,4.1-0.5,6.6-1.4v20.6
		c-2.3,0.5-4.5,0.8-6.4,0.8c-5.6,0-10.9-1.4-15.7-4.1c-4.9-2.7-8.7-6.4-11.4-11.1c-2.8-4.7-4.1-9.9-4.1-15.5
		c0-5.6,1.4-10.8,4.1-15.6c2.7-4.8,6.4-8.5,11.1-11.3c4.6-2.8,9.8-4.1,15.4-4.1c5.6,0,10.8,1.3,15.6,4c4.7,2.7,8.4,6.4,11.2,11.1
		c2.7,4.7,4.1,9.8,4.1,15.3V333.5z"/>
	<path class="st1" d="M464.6,360.4h-20.1v-27.8v-2.9c0-3.4,0.3-6.6,1-9.4c0.7-3,1.7-5.6,3-7.8c1.4-2.3,3.2-4.4,5.2-6.2
		c5-4.4,11-6.6,18-6.6c0.6,0,1.6,0.1,2.8,0.2v20.4c-1.2-0.4-2.2-0.6-3.1-0.6c-2.9,0-4.9,1.4-6,4.3c-0.5,1.2-0.7,3.5-0.7,7v1.4V360.4
		z"/>
	<path class="st1" d="M527.2,336.9l4.9,19.7c-6.2,3.4-12.8,5.1-19.9,5.1c-6.5,0-12.3-1.3-17.4-4c-2.6-1.4-5-3-7-4.9
		c-2-1.9-3.7-4-5.2-6.3c-3-4.8-4.4-10-4.4-15.8c0-5.6,1.4-10.8,4.1-15.4c2.7-4.6,6.4-8.4,11.2-11.2c4.8-2.7,10-4.1,15.6-4.1
		c5.4,0,10.5,1.3,15.1,3.8c2.3,1.2,4.4,2.8,6.3,4.6c1.9,1.8,3.6,3.9,5,6.3l-25,27c0.9,0.2,1.8,0.4,2.6,0.4
		C517.4,341.9,522.1,340.2,527.2,336.9z M499.6,335.8l14-15.2c-1.6-0.8-3.1-1.1-4.7-1.1c-1.9,0-3.7,0.5-5.3,1.4c-1.7,1-3,2.4-3.9,4
		c-1,1.7-1.5,3.5-1.5,5.5C498.1,332.1,498.6,333.9,499.6,335.8z"/>
	<path class="st1" d="M562.2,383h-20.1v-46.2v-4c0-3.1,0.2-5.9,0.7-8.5c0.4-2.4,1.1-4.7,2.1-6.9c0.9-2,2.1-4,3.8-6
		c1.5-2,3.2-3.6,4.9-5c1.9-1.4,3.9-2.6,5.8-3.6c1.9-0.9,4-1.7,6.4-2.2c2.2-0.5,4.6-0.7,7-0.7c5.6,0,10.7,1.4,15.5,4.1
		c4.7,2.7,8.4,6.5,11.1,11.2c2.7,4.7,4,9.9,4,15.6c0,4.3-0.8,8.4-2.3,12.1c-1.6,3.8-3.8,7.1-6.7,9.9c-3,2.9-6.3,5.1-10.1,6.6
		c-3.8,1.6-8,2.3-12.4,2.3c-2,0-4.1-0.3-6.2-0.8v-20.6c2.4,0.9,4.6,1.4,6.5,1.4c3.4,0,6.1-1,8.2-3c2-2,3.1-4.6,3.1-7.8
		c0-2.2-0.4-4.1-1.3-5.8c-0.9-1.6-2.2-2.9-3.7-3.9c-1.6-0.9-3.5-1.4-5.5-1.4c-2,0-3.8,0.5-5.5,1.4c-1.7,1-2.9,2.3-3.8,3.8
		c-0.6,1.2-1,2.4-1.2,3.5c-0.2,1.2-0.4,2.8-0.4,4.8v2.7V383z"/>
	<path class="st1" d="M632.7,360.4h-20.1v-82h20.1V360.4z"/>
	<path class="st1" d="M703.3,333.5v26.9h-20.1v-24.3v-2.8c0-3.8-0.5-6.6-1.4-8.3c-0.9-1.7-2.2-3-3.8-3.8c-1.6-0.9-3.4-1.4-5.3-1.4
		c-3,0-5.6,1.1-7.7,3.2c-2.1,2.2-3.2,4.8-3.2,7.9c0,3,1.1,5.6,3.2,7.6c2.1,2.1,4.8,3.1,7.9,3.1c1.9,0,4.1-0.5,6.6-1.4v20.6
		c-2.3,0.5-4.5,0.8-6.4,0.8c-5.6,0-10.9-1.4-15.7-4.1c-4.9-2.7-8.7-6.4-11.4-11.1c-2.8-4.7-4.1-9.9-4.1-15.5
		c0-5.6,1.4-10.8,4.1-15.6c2.7-4.8,6.4-8.5,11.1-11.3c4.6-2.8,9.8-4.1,15.4-4.1c5.6,0,10.8,1.3,15.6,4c4.7,2.7,8.4,6.4,11.2,11.1
		c2.7,4.7,4.1,9.8,4.1,15.3V333.5z"/>
	<path class="st1" d="M750.3,338.4l9.8,17.7c-5.2,3.7-11.2,5.5-17.8,5.5c-5.5,0-10.6-1.4-15.2-4.1c-4.6-2.8-8.3-6.5-11-11.2
		c-2.8-4.8-4.1-9.9-4.1-15.4c0-5.6,1.4-10.8,4.1-15.6c2.7-4.7,6.4-8.5,11.2-11.2c4.8-2.7,10-4.1,15.6-4.1c6.3,0,12,1.8,17.4,5.5
		l-9.9,17.7c-1.3-1.1-2.5-1.9-3.7-2.4c-1.1-0.5-2.4-0.7-4-0.7c-2,0-3.8,0.5-5.5,1.4c-1.7,1-3,2.3-4,3.9c-1,1.7-1.4,3.5-1.4,5.5
		c0,2,0.5,3.8,1.5,5.5c1,1.7,2.3,3,4,4c1.7,1,3.5,1.4,5.5,1.4c1.5,0,2.8-0.3,4-0.8C748,340.3,749.2,339.5,750.3,338.4z"/>
	<path class="st1" d="M812.9,336.9l4.9,19.7c-6.2,3.4-12.8,5.1-19.9,5.1c-6.5,0-12.3-1.3-17.4-4c-2.6-1.4-5-3-7-4.9
		c-2-1.9-3.7-4-5.2-6.3c-3-4.8-4.4-10-4.4-15.8c0-5.6,1.4-10.8,4.1-15.4c2.7-4.6,6.4-8.4,11.2-11.2c4.8-2.7,10-4.1,15.6-4.1
		c5.4,0,10.5,1.3,15.1,3.8c2.3,1.2,4.4,2.8,6.3,4.6c1.9,1.8,3.6,3.9,5,6.3l-25,27c0.9,0.2,1.8,0.4,2.6,0.4
		C803.1,341.9,807.8,340.2,812.9,336.9z M785.3,335.8l14-15.2c-1.6-0.8-3.1-1.1-4.7-1.1c-1.9,0-3.7,0.5-5.3,1.4c-1.7,1-3,2.4-3.9,4
		c-1,1.7-1.5,3.5-1.5,5.5C783.8,332.1,784.3,333.9,785.3,335.8z"/>
	<path class="st1" d="M886.5,333.5v26.9h-20.1v-24.3v-2.8c0-3.8-0.5-6.6-1.4-8.3c-0.9-1.7-2.2-3-3.8-3.8c-1.6-0.9-3.4-1.4-5.3-1.4
		c-3,0-5.6,1.1-7.7,3.2c-2.1,2.2-3.2,4.8-3.2,7.9c0,3,1.1,5.6,3.2,7.6c2.1,2.1,4.8,3.1,7.9,3.1c1.9,0,4.1-0.5,6.6-1.4v20.6
		c-2.3,0.5-4.5,0.8-6.4,0.8c-5.6,0-10.9-1.4-15.7-4.1c-4.9-2.7-8.7-6.4-11.4-11.1c-2.8-4.7-4.1-9.9-4.1-15.5
		c0-5.6,1.4-10.8,4.1-15.6c2.7-4.8,6.4-8.5,11.1-11.3c4.6-2.8,9.8-4.1,15.4-4.1c5.6,0,10.8,1.3,15.6,4c4.7,2.7,8.4,6.4,11.2,11.1
		c2.7,4.7,4.1,9.8,4.1,15.3V333.5z"/>
	<path class="st1" d="M898,328v-49.6H918v47.1v2.7c0,3.6,0.5,6.4,1.4,8.3c0.9,1.7,2.2,3,3.8,3.8c1.6,0.9,3.4,1.4,5.3,1.4
		c2,0,3.9-0.5,5.5-1.5c1.7-1,3-2.3,3.9-4c1-1.7,1.4-3.5,1.4-5.5c0-2-0.5-3.8-1.4-5.5c-1-1.7-2.4-3-4-3.9c-1.8-0.9-3.7-1.4-5.7-1.4
		c-1.9,0-4.1,0.5-6.6,1.4v-20.6c2.3-0.5,4.5-0.8,6.4-0.8c5.7,0,11,1.3,15.8,4c4.8,2.7,8.6,6.4,11.4,11.1c2.8,4.7,4.1,9.9,4.1,15.6
		c0,5.6-1.4,10.8-4.1,15.6c-2.8,4.8-6.5,8.6-11.1,11.4c-4.7,2.8-9.8,4.1-15.4,4.1c-5.6,0-10.8-1.3-15.5-4
		c-4.8-2.7-8.5-6.4-11.2-11.1c-2.8-4.7-4.1-9.8-4.1-15.3V328z"/>
	<path class="st1" d="M988.6,360.4h-20.1v-82h20.1V360.4z"/>
	<path class="st1" d="M1046.6,336.9l4.9,19.7c-6.2,3.4-12.8,5.1-19.9,5.1c-6.5,0-12.3-1.3-17.4-4c-2.6-1.4-5-3-7-4.9
		c-2-1.9-3.7-4-5.2-6.3c-3-4.8-4.4-10-4.4-15.8c0-5.6,1.4-10.8,4.1-15.4c2.7-4.6,6.4-8.4,11.2-11.2c4.8-2.7,10-4.1,15.6-4.1
		c5.4,0,10.5,1.3,15.1,3.8c2.3,1.2,4.4,2.8,6.3,4.6c1.9,1.8,3.6,3.9,5,6.3l-25,27c0.9,0.2,1.8,0.4,2.6,0.4
		C1036.8,341.9,1041.5,340.2,1046.6,336.9z M1019,335.8l14-15.2c-1.6-0.8-3.1-1.1-4.7-1.1c-1.9,0-3.7,0.5-5.3,1.4
		c-1.7,1-3,2.4-3.9,4c-1,1.7-1.5,3.5-1.5,5.5C1017.5,332.1,1018,333.9,1019,335.8z"/>
	<path class="st1" d="M1107.9,300.9h11.1v20.1h-11.1v9.6v2.7c0,3,0.6,5.2,1.9,6.6c1.2,1.4,3.3,2,6.1,2c0.2,0,1.3-0.1,3.1-0.3v19.8
		c-1.7,0.2-3,0.3-4,0.3c-3,0-5.8-0.4-8.4-1.3c-2.7-0.8-5.1-2-7.4-3.6c-2.2-1.5-4.2-3.4-5.9-5.7c-1.4-2-2.5-3.9-3.3-5.8
		c-0.8-1.8-1.3-4-1.6-6.6c-0.3-2.7-0.5-6-0.5-9.9V327v-43.7h20.1V300.9z"/>
	<path class="st1" d="M1186.7,333.5v26.9h-20.1v-24.3v-2.8c0-3.8-0.5-6.6-1.4-8.3c-0.9-1.7-2.2-3-3.8-3.8c-1.6-0.9-3.4-1.4-5.3-1.4
		c-3,0-5.6,1.1-7.7,3.2c-2.1,2.2-3.2,4.8-3.2,7.9c0,3,1.1,5.6,3.2,7.6c2.1,2.1,4.8,3.1,7.9,3.1c1.9,0,4.1-0.5,6.6-1.4v20.6
		c-2.3,0.5-4.5,0.8-6.4,0.8c-5.6,0-10.9-1.4-15.7-4.1c-4.9-2.7-8.7-6.4-11.4-11.1c-2.8-4.7-4.1-9.9-4.1-15.5
		c0-5.6,1.4-10.8,4.1-15.6c2.7-4.8,6.4-8.5,11.1-11.3c4.6-2.8,9.8-4.1,15.4-4.1c5.6,0,10.8,1.3,15.6,4c4.7,2.7,8.4,6.4,11.2,11.1
		c2.7,4.7,4.1,9.8,4.1,15.3V333.5z"/>
	<path class="st1" d="M1209.4,382.8v-17.7c1.8,0.7,3.5,1.2,5.1,1.5c1.4,0.3,3.1,0.4,5,0.4c3.8,0,7-0.7,9.6-2.2
		c2.5-1.4,4.3-3.5,5.3-6.3c0.8-2,1.1-5.3,1.1-9.9v-15.2c0-3.8-0.5-6.5-1.4-8.3c-0.8-1.6-2-2.9-3.5-3.8c-1.5-0.9-3.1-1.3-5-1.3
		c-2.9,0-5.3,1-7.3,2.9c-2,2-2.9,4.3-2.9,7.1c0,2.9,1,5.3,3.1,7.2c2,2,4.5,2.9,7.5,2.9c1.7,0,3.6-0.4,5.6-1.1v17.8
		c-3.2,0.8-6.2,1.3-9,1.3c-5.2,0-9.9-1.2-14.1-3.7c-4.2-2.4-7.5-5.8-9.9-10c-2.4-4.3-3.6-9.1-3.6-14.3c0-5.5,1.4-10.6,4.1-15.2
		c2.7-4.6,6.4-8.3,11.1-11.1s9.7-4.1,15.1-4.1c3.4,0,6.9,0.6,10.2,1.7c3.2,1.2,6.2,2.9,9.1,5.2c2.7,2.2,4.9,4.8,6.7,7.7
		c1.5,2.5,2.6,5,3.2,7.6c0.6,2.6,0.9,6.1,0.9,10.4v17.2c0,5-0.4,9-1.1,12.1c-0.8,3.2-2.1,6.2-4,9c-1.9,2.9-4.2,5.4-7.1,7.5
		c-2.6,2-5.8,3.4-9.4,4.4c-3.5,1-7.5,1.4-12,1.4c-1.8,0-3.7-0.1-5.8-0.3C1214.2,383.7,1211.9,383.4,1209.4,382.8z"/>
	<path class="st1" d="M1287.1,360.4H1267v-82h20.1V360.4z"/>
	<path class="st1" d="M1298.6,288.4c0-2,0.5-3.9,1.4-5.6c0.9-1.6,2.2-3,3.9-4.1c1.6-1,3.4-1.4,5.3-1.4c2,0,3.9,0.5,5.5,1.5
		c1.7,1,3,2.3,4,4c0.9,1.7,1.4,3.5,1.4,5.5c0,1.9-0.5,3.7-1.4,5.3c-1,1.7-2.4,3-4,3.9c-1.7,1-3.5,1.4-5.3,1.4
		c-1.9,0-3.7-0.5-5.3-1.4c-1.7-1-3-2.2-4-3.8C1299.1,292,1298.6,290.3,1298.6,288.4z M1319.5,360.4h-20.1v-59.6h20.1V360.4z"/>
	<path class="st1" d="M1351.5,330.9v29.6h-20.1V333v-2.1c0-4.4,0.3-8,0.9-10.8c0.6-2.7,1.7-5.4,3.2-8c2.5-3.9,5.7-6.9,9.7-9
		c4-2.1,8.4-3.2,13.1-3.2c5.5,0,10.4,1.4,14.8,4.1c4.4,2.8,7.7,6.5,9.7,11.2c1,2,1.7,4.2,2,6.4c0.4,2.2,0.5,5.3,0.5,9.3v2.1v27.5
		h-20.1v-29.6v-2c-0.1-6.1-2.4-9.1-7-9.1c-4.6,0-7,3-7,9.1V330.9z"/>
	<path class="st1" d="M1443.2,336.9l4.9,19.7c-6.2,3.4-12.8,5.1-19.9,5.1c-6.5,0-12.3-1.3-17.4-4c-2.6-1.4-5-3-7-4.9
		c-2-1.9-3.7-4-5.2-6.3c-3-4.8-4.4-10-4.4-15.8c0-5.6,1.4-10.8,4.1-15.4c2.7-4.6,6.4-8.4,11.2-11.2c4.8-2.7,10-4.1,15.6-4.1
		c5.4,0,10.5,1.3,15.1,3.8c2.3,1.2,4.4,2.8,6.3,4.6c1.9,1.8,3.6,3.9,5,6.3l-25,27c0.9,0.2,1.8,0.4,2.6,0.4
		C1433.4,341.9,1438.1,340.2,1443.2,336.9z M1415.5,335.8l14-15.2c-1.6-0.8-3.1-1.1-4.7-1.1c-1.9,0-3.7,0.5-5.3,1.4
		c-1.7,1-3,2.4-3.9,4c-1,1.7-1.5,3.5-1.5,5.5C1414.1,332.1,1414.6,333.9,1415.5,335.8z"/>
</g>
</svg>
