<?xml version="1.0" encoding="utf-8"?>
<!-- Generator: Adobe Illustrator 22.0.0, SVG Export Plug-In . SVG Version: 6.00 Build 0)  -->
<svg version="1.1" id="Layer_1" xmlns="http://www.w3.org/2000/svg" xmlns:xlink="http://www.w3.org/1999/xlink" x="0px" y="0px"
	 viewBox="0 0 500 500" style="enable-background:new 0 0 500 500;" xml:space="preserve">
<style type="text/css">
	.st0{fill:#F5F5F5;}
	.st1{fill:#E0E0E0;}
	.st2{fill:#925B97;}
	.st3{opacity:0.4;fill:#FFFFFF;enable-background:new    ;}
	.st4{opacity:0.1;enable-background:new    ;}
	.st5{fill:#EBEBEB;}
	.st6{fill:#FAFAFA;}
	.st7{fill:#37474F;}
	.st8{fill:#455A64;}
	.st9{fill:#263238;}
	.st10{opacity:0.15;}
</style>
<g id="Floor_1_">
	<path id="Floor_10_" class="st0" d="M87.5,450.3c91.7,48.3,240.4,48.3,332,0c91.7-48.3,91.7-126.7,0-175s-240.4-48.3-332,0
		C-4.2,323.6-4.2,401.9,87.5,450.3z"/>
</g>
<g id="Shadow">
	<path id="Shadow_2_" class="st1" d="M139.2,426.2l4.3,2.4c1.4,0.8,3.6,0.8,4.9,0L345,315.1c1.4-0.8,1.4-2.1,0-2.8l-4.2-2.4
		c-1.4-0.8-3.6-0.8-4.9,0L139.2,423.4C137.8,424.2,137.8,425.4,139.2,426.2z"/>
</g>
<g id="Plants">
</g>
<g id="Tabs">
	<g id="Tab_10_">
		<g id="XMLID_56_">
			<path id="XMLID_59_" class="st2" d="M144.5,423.4l-0.9-0.5c-1.4-0.8-2.5-2.7-2.5-4.3V127c0-1.6,1.1-3.5,2.5-4.3L331.5,14.1
				c1.4-0.8,3.6-0.8,5,0l0.9,0.5c1.4,0.8,2.5,2.7,2.5,4.3v291.6c0,1.6-1.1,3.5-2.5,4.3L149.5,423.4
				C148.1,424.1,145.9,424.1,144.5,423.4z"/>
			<path id="XMLID_58_" class="st3" d="M339.9,18.5c-0.2-1.3-1.2-1.8-2.5-1L149.5,126c-0.7,0.4-1.3,1.1-1.8,1.9l-5.9-3.4
				c0.4-0.8,1.1-1.5,1.8-1.9L331.5,14.1c1.4-0.8,3.6-0.8,5,0l0.9,0.5C338.6,15.3,339.7,17,339.9,18.5z"/>
			<path id="XMLID_57_" class="st4" d="M149.1,423.5c-1.4,0.6-3.3,0.5-4.6-0.2l-0.9-0.5c-1.4-0.8-2.5-2.7-2.5-4.3V126.9
				c0-0.8,0.3-1.7,0.7-2.5l5.9,3.4c-0.4,0.8-0.7,1.7-0.7,2.5v291.6C147,423.3,147.9,424,149.1,423.5z"/>
		</g>
	</g>
	<g id="Tabs_2_">
		<g id="Tab_9_">
			<g id="XMLID_52_">
				<path id="XMLID_55_" class="st5" d="M169.1,317.9l-0.9-0.5c-1.4-0.8-2.5-2.7-2.5-4.3v-52.4c0-1.6,1.1-3.5,2.5-4.3l170.6-98.6
					c1.4-0.8,3.6-0.8,5,0l0.9,0.5c1.4,0.8,2.5,2.7,2.5,4.3V215c0,1.6-1.1,3.5-2.5,4.3l-170.6,98.6
					C172.8,318.7,170.5,318.7,169.1,317.9z"/>
				<path id="XMLID_54_" class="st6" d="M347.2,162.2c-0.2-1.3-1.2-1.8-2.5-1l-170.6,98.6c-0.7,0.4-1.3,1.1-1.8,1.9l-5.9-3.4
					c0.4-0.8,1.1-1.5,1.8-1.9l170.6-98.6c1.4-0.8,3.6-0.8,5,0l0.9,0.5C346,159,347.1,160.6,347.2,162.2z"/>
				<path id="XMLID_53_" class="st1" d="M173.7,318.1c-1.4,0.6-3.3,0.5-4.6-0.2l-0.9-0.5c-1.4-0.8-2.5-2.7-2.5-4.3v-52.4
					c0-0.8,0.3-1.7,0.7-2.5l5.9,3.4c-0.4,0.8-0.7,1.7-0.7,2.5v52.4C171.6,317.9,172.5,318.5,173.7,318.1z"/>
			</g>
			<g id="XMLID_50_">
				<path id="XMLID_51_" class="st2" d="M198.3,256.2c9.7-5.6,17.6-1.2,17.6,9.8c0,11-7.9,24.4-17.6,29.9
					c-9.7,5.5-17.6,1.1-17.6-9.8C180.6,275.2,188.5,261.8,198.3,256.2z"/>
			</g>
		</g>
		<g id="Tab_8_">
			<g id="XMLID_46_">
				<path id="XMLID_49_" class="st5" d="M169.1,388.9l-0.9-0.5c-1.4-0.8-2.5-2.7-2.5-4.3v-52.4c0-1.6,1.1-3.5,2.5-4.3l170.6-98.6
					c1.4-0.8,3.6-0.8,5,0l0.9,0.5c1.4,0.8,2.5,2.7,2.5,4.3V286c0,1.6-1.1,3.5-2.5,4.3l-170.6,98.6
					C172.8,389.7,170.5,389.7,169.1,388.9z"/>
				<path id="XMLID_48_" class="st6" d="M347.2,233.2c-0.2-1.3-1.2-1.8-2.5-1l-170.6,98.6c-0.7,0.4-1.3,1.1-1.8,1.9l-5.9-3.4
					c0.4-0.8,1.1-1.5,1.8-1.9l170.6-98.6c1.4-0.8,3.6-0.8,5,0l0.9,0.5C346,230,347.1,231.7,347.2,233.2z"/>
				<path id="XMLID_47_" class="st1" d="M173.7,389.1c-1.4,0.6-3.3,0.5-4.6-0.2l-0.9-0.5c-1.4-0.8-2.5-2.7-2.5-4.3v-52.4
					c0-0.8,0.3-1.7,0.7-2.5l5.9,3.4c-0.4,0.8-0.7,1.7-0.7,2.5v52.4C171.6,388.9,172.5,389.6,173.7,389.1z"/>
			</g>
			<g id="XMLID_44_">
				<path id="XMLID_45_" class="st2" d="M198.3,327.2c9.7-5.6,17.6-1.2,17.6,9.8s-7.9,24.4-17.6,29.9c-9.7,5.5-17.6,1.1-17.6-9.8
					C180.6,346.2,188.5,332.8,198.3,327.2z"/>
			</g>
		</g>
		<g id="Tab_2_">
			<g id="XMLID_40_">
				<path id="XMLID_43_" class="st5" d="M169.1,199.1l-0.9-0.5c-1.4-0.8-2.5-2.7-2.5-4.3v-52.4c0-1.6,1.1-3.5,2.5-4.3L338.8,39
					c1.4-0.8,3.6-0.8,5,0l0.9,0.5c1.4,0.8,2.5,2.7,2.5,4.3v52.4c0,1.6-1.1,3.5-2.5,4.3l-170.6,98.6
					C172.8,199.9,170.5,199.9,169.1,199.1z"/>
				<path id="XMLID_42_" class="st6" d="M347.2,43.4c-0.2-1.3-1.2-1.8-2.5-1L174.1,141c-0.7,0.4-1.3,1.1-1.8,1.9l-5.9-3.4
					c0.4-0.8,1.1-1.5,1.8-1.9L338.8,39c1.4-0.8,3.6-0.8,5,0l0.9,0.5C346,40.2,347.1,41.9,347.2,43.4z"/>
				<path id="XMLID_41_" class="st1" d="M173.7,199.3c-1.4,0.6-3.3,0.5-4.6-0.2l-0.9-0.5c-1.4-0.8-2.5-2.7-2.5-4.3v-52.4
					c0-0.8,0.3-1.7,0.7-2.5l5.9,3.4c-0.4,0.8-0.7,1.7-0.7,2.5v52.4C171.6,199.1,172.5,199.8,173.7,199.3z"/>
			</g>
			<g id="XMLID_38_">
				<path id="XMLID_39_" class="st2" d="M198.3,137.4c9.7-5.6,17.6-1.2,17.6,9.8s-7.9,24.4-17.6,29.9c-9.7,5.5-17.6,1.1-17.6-9.8
					C180.6,156.4,188.5,143,198.3,137.4z"/>
			</g>
		</g>
		<g id="Tab_1_">
			<g id="XMLID_34_">
				<path id="XMLID_37_" class="st7" d="M181.1,265.6l-0.9-0.5c-1.4-0.8-2.5-2.7-2.5-4.3v-52.4c0-1.6,1.1-3.5,2.5-4.3l170.6-98.6
					c1.4-0.8,3.6-0.8,5,0l0.9,0.5c1.4,0.8,2.5,2.7,2.5,4.3v52.4c0,1.6-1.1,3.5-2.5,4.3l-170.6,98.6
					C184.8,266.4,182.5,266.4,181.1,265.6z"/>
				<path id="XMLID_36_" class="st8" d="M359.2,109.9c-0.2-1.3-1.2-1.8-2.5-1l-170.6,98.6c-0.7,0.4-1.3,1.1-1.8,1.9l-5.9-3.4
					c0.4-0.8,1.1-1.5,1.8-1.9l170.6-98.6c1.4-0.8,3.6-0.8,5,0l0.9,0.5C358,106.7,359,108.4,359.2,109.9z"/>
				<path id="XMLID_35_" class="st9" d="M185.7,265.8c-1.4,0.6-3.3,0.5-4.6-0.2l-0.9-0.5c-1.4-0.8-2.5-2.7-2.5-4.3v-52.4
					c0-0.8,0.3-1.7,0.7-2.5l5.9,3.4c-0.4,0.8-0.7,1.7-0.7,2.5v52.4C183.6,265.6,184.5,266.3,185.7,265.8z"/>
			</g>
			<g id="XMLID_30_">
				<path id="XMLID_33_" class="st0" d="M210.3,203.9c9.7-5.6,17.6-1.2,17.6,9.8s-7.9,24.4-17.6,29.9s-17.6,1.1-17.6-9.8
					C192.6,222.9,200.5,209.6,210.3,203.9z"/>
				<g id="XMLID_31_">
					<path id="XMLID_32_" class="st2" d="M210.6,235.6c-0.8,0.5-1.6,0.5-2.2,0.1l-7.7-5.9c-1-0.8-0.9-2.9,0.3-4.8c1.2-1.9,3-2.8,4-2
						l5.4,4.1l15-32.2c0.9-2,2.7-3.4,4-3c1.3,0.3,1.5,2.3,0.6,4.3L212.9,233c-0.5,1.1-1.3,2.1-2.2,2.6
						C210.7,235.6,210.6,235.6,210.6,235.6z"/>
				</g>
			</g>
		</g>
	</g>
</g>
<g id="Cursor">
	<g id="XMLID_60_">
		<g id="XMLID_73_">
			<g id="XMLID_74_">
				<path id="XMLID_88_" class="st2" d="M359.2,187.8l-4.9-2.9l0,0c-2.2-1.2-4.8,0-6.2,0.8L345,184l0,0c-3.7-2.3-9,2.5-10.1,3.6
					l-1.3-0.8l0,0c-4-2.4-11.2,4-11.2,4V167l3.1-1.5l-5-2.9l0,0l0,0l0,0c-1.1-0.6-2.7-0.5-4.4,0.5l0,0c-3.5,2-6.3,6.9-6.3,11v55.3
					c-4.6-3.4-9.4-5.5-13.7-4.7c-3.8,0.7-7.3,4-8.3,5.7c-2.1,3.7,1.4,6,5.8,11.1s8.3,11.1,12.4,14.9c4,3.8,6.9,4.7,6.9,4.7v7.2
					l4.9,2.8l32.4-24.4v-7.2c0,0,4.6-18.5,6.1-26.2c1.4-7.4,2.7-19.3,0.3-25.4L359.2,187.8L359.2,187.8z"/>
				<path id="XMLID_87_" class="st3" d="M359.2,187.8l-4.9-2.9l0,0c-2.2-1.2-4.8,0-6.2,0.8L345,184l0,0c-3.7-2.3-9,2.5-10.1,3.6
					l-1.3-0.8l0,0c-4-2.4-11.2,4-11.2,4V167l3.1-1.5l-5-2.9l0,0l0,0l0,0c-1.1-0.6-2.7-0.5-4.4,0.5l0,0c-3.5,2-6.3,6.9-6.3,11v55.3
					c-4.6-3.4-9.4-5.5-13.7-4.7c-3.8,0.7-7.3,4-8.3,5.7c-2.1,3.7,1.4,6,5.8,11.1s8.3,11.1,12.4,14.9c4,3.8,6.9,4.7,6.9,4.7v7.2
					l4.9,2.8l32.4-24.4v-7.2c0,0,4.6-18.5,6.1-26.2c1.4-7.4,2.7-19.3,0.3-25.4L359.2,187.8L359.2,187.8z"/>
				<g id="XMLID_81_">
					<path id="XMLID_86_" class="st2" d="M322.6,251.3l-24.5-14.2l-10.7-6.2c-1.4,3.3,1.9,5.7,6.1,10.5c4.4,5.1,8.3,11.1,12.4,14.9
						c4,3.8,6.9,4.7,6.9,4.7v7.2l4.9,2.8l7.2-5.4C324,259.6,322.6,251.3,322.6,251.3z"/>
					<polygon id="XMLID_85_" class="st2" points="314.5,176.8 309.6,174 309.6,232 314.5,232.1 					"/>
					<path id="XMLID_84_" class="st2" d="M353,191.5l3.8-2.8c-0.1-0.2-0.2-0.5-0.3-0.7l1.4-0.1l-3-0.1l-5.1-2.8
						c-0.7,0.3-1.3,0.6-1.7,0.9l1.6,0.9L353,191.5z"/>
					<path id="XMLID_83_" class="st2" d="M339.5,190.6l3.6-2.7l-4.9-3c-1.6,1-2.8,2.1-3.3,2.6l3.4,2L339.5,190.6z"/>
					<polygon id="XMLID_82_" class="st2" points="332.1,190.4 327.2,187.5 327.2,187.5 327.2,193.7 332.9,191.6 					"/>
				</g>
				<g id="XMLID_75_" class="st10">
					<path id="XMLID_80_" d="M322.6,251.3l-24.5-14.2l-10.7-6.2c-1.4,3.3,1.9,5.7,6.1,10.5c4.4,5.1,8.3,11.1,12.4,14.9
						c4,3.8,6.9,4.7,6.9,4.7v7.2l4.9,2.8l7.2-5.4C324,259.6,322.6,251.3,322.6,251.3z"/>
					<polygon id="XMLID_79_" points="314.5,176.8 309.6,174 309.6,232 314.5,232.1 					"/>
					<path id="XMLID_78_" d="M353,191.5l3.8-2.8c-0.1-0.2-0.2-0.5-0.3-0.7l1.4-0.1l-3-0.1l-5.1-2.8c-0.7,0.3-1.3,0.6-1.7,0.9
						l1.6,0.9L353,191.5z"/>
					<path id="XMLID_77_" d="M339.5,190.6l3.6-2.7l-4.9-3c-1.6,1-2.8,2.1-3.3,2.6l3.4,2L339.5,190.6z"/>
					<polygon id="XMLID_76_" points="332.1,190.4 327.2,187.5 327.2,187.5 327.2,193.7 332.9,191.6 					"/>
				</g>
			</g>
		</g>
		<g id="XMLID_67_">
			<path id="XMLID_72_" class="st2" d="M317.7,271.1v-7.2c0,0-2.9-1-6.9-4.7s-7.9-9.9-12.4-14.9c-4.5-5.1-7.9-7.4-5.8-11.1
				c1-1.8,4.4-5,8.3-5.7c4.3-0.8,9.1,1.3,13.7,4.7v-55.3c0-4,2.8-9,6.3-11l0,0c3.5-2,6.3-0.4,6.3,3.7v24.1c0,0,8.7-7.8,12.3-3
				c0,0,8.6-9,12.5-1.4c0,0,6.3-5.1,9.2,0.8c2.8,5.9,1.5,18.4,0,26.1c-1.5,7.7-6.1,26.2-6.1,26.2v7.2L317.7,271.1z"/>
			<g id="XMLID_68_">
				<path id="XMLID_71_" class="st8" d="M327.2,204c0,0,0.8-11,4.8-13.6h-0.1c-2.6,1.3-4.7,3.2-4.7,3.2v-0.2c0,0.1,0,0.2,0,0.2
					L327.2,204L327.2,204z"/>
				<path id="XMLID_70_" class="st8" d="M339.5,190.6v10.1c0,0,1.1-10.4,3.4-12.9C341,189.1,339.5,190.6,339.5,190.6z"/>
				<path id="XMLID_69_" class="st8" d="M352,189.2L352,189.2v10.1c0,0,0.6-10.2,2.8-11.7C353.2,188.3,352,189.2,352,189.2z"/>
			</g>
		</g>
		<g id="XMLID_61_">
			<path id="XMLID_66_" class="st5" d="M316,156.1L316,156.1c-0.8,0.5-1.4,0.2-1.4-0.6v-8c0-0.8,0.6-1.8,1.4-2.2l0,0
				c0.8-0.5,1.4-0.2,1.4,0.6v8C317.4,154.6,316.7,155.6,316,156.1z"/>
			<path id="XMLID_65_" class="st5" d="M304,168.7L304,168.7c-0.6,1-1.5,1.5-2,1.2l-4.6-2.7c-0.6-0.3-0.6-1.4,0-2.3l0,0
				c0.6-1,1.5-1.5,2-1.2l4.6,2.7C304.6,166.7,304.6,167.7,304,168.7z"/>
			<path id="XMLID_64_" class="st5" d="M299.1,185.2v0.2c0,0.8-0.7,1.9-1.5,2.4l-6.3,3.7c-0.8,0.5-1.5,0.2-1.5-0.6v-0.2
				c0-0.8,0.7-1.9,1.5-2.4l6.3-3.7C298.4,184.1,299.1,184.4,299.1,185.2z"/>
			<path id="XMLID_63_" class="st5" d="M332.9,165.9v-0.2c0-0.8,0.7-1.9,1.5-2.4l6.3-3.7c0.8-0.5,1.5-0.2,1.5,0.6v0.2
				c0,0.8-0.7,1.9-1.5,2.4l-6.3,3.7C333.5,167.1,332.9,166.8,332.9,165.9z"/>
			<path id="XMLID_62_" class="st5" d="M327.9,154.9L327.9,154.9c-0.6-0.3-0.6-1.4,0-2.3l4.6-8c0.6-1,1.5-1.5,2-1.2l0,0
				c0.6,0.3,0.6,1.4,0,2.3l-4.6,8C329.4,154.7,328.5,155.2,327.9,154.9z"/>
		</g>
	</g>
</g>
<g id="Character_2">
</g>
<g id="Character_1">
</g>
</svg>
